<?xml version="1.0" encoding="UTF-8" standalone="no"?>
<!-- Created with Inkscape (http://www.inkscape.org/) -->

<svg
   width="39.687504mm"
   height="44.434219mm"
   viewBox="0 0 39.687504 44.434219"
   version="1.1"
   id="svg1"
   xml:space="preserve"
   xmlns:inkscape="http://www.inkscape.org/namespaces/inkscape"
   xmlns:sodipodi="http://sodipodi.sourceforge.net/DTD/sodipodi-0.dtd"
   xmlns="http://www.w3.org/2000/svg"
   xmlns:svg="http://www.w3.org/2000/svg"><sodipodi:namedview
     id="namedview1"
     pagecolor="#ffffff"
     bordercolor="#000000"
     borderopacity="0.25"
     inkscape:showpageshadow="2"
     inkscape:pageopacity="0.0"
     inkscape:pagecheckerboard="0"
     inkscape:deskcolor="#d1d1d1"
     inkscape:document-units="mm" /><defs
     id="defs1" /><g
     inkscape:label="Vrstva 1"
     inkscape:groupmode="layer"
     id="layer1"
     transform="translate(-20.198674,-38.069903)"><path
       style="fill:#054b15"
       d="m 37.922652,81.233076 c -1.093115,-0.690369 -5.319834,-3.262399 -9.392709,-5.715623 -4.072875,-2.453224 -7.613587,-4.638156 -7.868248,-4.855403 -0.42043,-0.358662 -0.463021,-1.072685 -0.463021,-7.762322 v -7.367326 h 2.645833 2.645834 v 6.081662 6.081663 l 0.992187,0.623665 c 6.134844,3.856212 13.259893,8.115093 13.576441,8.115093 0.28735,0 3.187262,-1.72498 11.757414,-6.993764 l 2.645834,-1.626614 0.06879,-12.226269 0.06879,-12.226269 H 40.036405 25.473014 l 0.07481,2.976562 0.07481,2.976563 3.579328,0.07323 3.579328,0.07323 3.560504,7.136665 c 1.958277,3.925166 3.623148,7.136666 3.699712,7.136666 0.07656,0 1.358556,-2.442147 2.848871,-5.426993 l 2.709663,-5.426993 -1.499934,-0.663342 -1.499935,-0.663343 c 9.321649,-5.263816 6.234137,-3.529419 9.36992,-5.256239 0.104237,2.610874 0.0041,-7.9e-4 0.370737,10.293479 -2.437645,-1.322702 0.0026,0.01395 -2.435003,-1.323236 -0.120365,0 -2.354585,4.28625 -4.964933,9.525 -2.610348,5.23875 -4.810857,9.525 -4.89002,9.525 -0.07916,0 -2.434964,-4.583906 -5.235113,-10.186458 L 29.72458,53.944902 h -4.762951 -4.76295 v -7.9375 -7.9375 h 19.84375 19.843751 v 16.206325 16.206324 l -2.050521,1.237313 c -1.127786,0.680522 -5.600005,3.388926 -9.938263,6.018675 -4.338258,2.629749 -7.910133,4.77425 -7.9375,4.765558 -0.02737,-0.0087 -0.944125,-0.580652 -2.037239,-1.271021 z"
       id="path2"
       sodipodi:nodetypes="sssscccccssscccccccccsssccccccssscccccccccsssss"
       inkscape:export-filename="logo.svg"
       inkscape:export-xdpi="96"
       inkscape:export-ydpi="96" /></g></svg>
